<?xml version="1.0" encoding="iso-8859-1"?>
<!-- Generator: Adobe Illustrator 17.1.0, SVG Export Plug-In . SVG Version: 6.00 Build 0)  -->
<!DOCTYPE svg PUBLIC "-//W3C//DTD SVG 1.1//EN" "http://www.w3.org/Graphics/SVG/1.1/DTD/svg11.dtd">
<svg version="1.1" id="Capa_1" xmlns="http://www.w3.org/2000/svg" xmlns:xlink="http://www.w3.org/1999/xlink" x="0px" y="0px"
	 viewBox="0 0 442.218 442.218" style="enable-background:new 0 0 442.218 442.218;" xml:space="preserve">
<g>
	<path d="M221.109,0C139.117,0,72.412,66.705,72.412,148.697c0,51.807,27.161,99.981,71.213,126.927l4.755,35.096
		c2.251,16.609,16.007,29.134,32,29.134h81.458c15.993,0,29.749-12.525,31.999-29.134l4.755-35.096
		c44.052-26.946,71.213-75.121,71.213-126.927C369.806,66.705,303.101,0,221.109,0z M284.408,260.769
		c-2.72,1.54-4.563,4.262-4.983,7.359l-5.407,39.906c-0.897,6.627-6.248,11.819-12.18,11.819H180.38
		c-5.932,0-11.282-5.192-12.18-11.82l-5.407-39.906c-0.42-3.097-2.263-5.82-4.983-7.359c-40.338-22.836-65.397-65.78-65.397-112.072
		C92.412,77.733,150.145,20,221.109,20s128.697,57.733,128.697,128.697C349.806,194.989,324.747,237.933,284.408,260.769z"/>
	<path d="M273.482,351.19H168.735c-5.523,0-10,4.477-10,10s4.477,10,10,10h104.747c5.523,0,10-4.477,10-10
		S279.005,351.19,273.482,351.19z"/>
	<path d="M260.801,382.526h-79.385c-5.523,0-10,4.477-10,10c0,27.4,22.292,49.692,49.692,49.692s49.692-22.292,49.692-49.692
		C270.801,387.003,266.324,382.526,260.801,382.526z M221.109,422.218c-12.865,0-23.846-8.225-27.96-19.692h55.92
		C244.955,413.993,233.974,422.218,221.109,422.218z"/>
	<path d="M284.487,154.547c0-0.186-0.001-0.372-0.012-0.557c-0.008-0.139-0.024-0.278-0.037-0.417
		c-0.018-0.179-0.036-0.358-0.063-0.535c-0.024-0.153-0.056-0.304-0.087-0.456c-0.033-0.159-0.064-0.319-0.104-0.476
		c-0.042-0.167-0.094-0.332-0.145-0.497c-0.044-0.14-0.086-0.28-0.135-0.417c-0.061-0.169-0.13-0.334-0.2-0.501
		c-0.057-0.134-0.112-0.268-0.174-0.399c-0.073-0.154-0.154-0.306-0.236-0.457c-0.077-0.142-0.154-0.284-0.238-0.422
		c-0.079-0.131-0.164-0.26-0.25-0.388c-0.103-0.155-0.209-0.307-0.321-0.456c-0.039-0.052-0.072-0.108-0.113-0.16
		c-0.047-0.06-0.099-0.111-0.147-0.17c-0.123-0.15-0.25-0.297-0.382-0.44c-0.096-0.104-0.192-0.206-0.292-0.305
		c-0.13-0.13-0.265-0.256-0.403-0.379c-0.112-0.1-0.224-0.198-0.34-0.292c-0.133-0.108-0.27-0.212-0.409-0.314
		c-0.129-0.095-0.259-0.188-0.392-0.275c-0.134-0.089-0.272-0.173-0.411-0.255c-0.147-0.087-0.294-0.171-0.444-0.25
		c-0.134-0.07-0.271-0.137-0.409-0.201c-0.164-0.077-0.33-0.15-0.498-0.218c-0.133-0.054-0.268-0.104-0.405-0.153
		c-0.179-0.064-0.36-0.122-0.542-0.175c-0.075-0.022-0.145-0.051-0.221-0.071c-0.066-0.018-0.132-0.026-0.198-0.042
		c-0.175-0.043-0.351-0.08-0.528-0.113c-0.158-0.03-0.315-0.058-0.472-0.081c-0.153-0.021-0.306-0.036-0.46-0.051
		c-0.179-0.017-0.357-0.032-0.535-0.04c-0.137-0.005-0.273-0.004-0.41-0.004c-0.189,0-0.377,0.001-0.565,0.012
		c-0.136,0.008-0.271,0.023-0.407,0.036c-0.183,0.018-0.365,0.037-0.546,0.065c-0.148,0.023-0.295,0.054-0.442,0.084
		c-0.165,0.033-0.329,0.066-0.491,0.107c-0.161,0.041-0.32,0.091-0.48,0.14c-0.146,0.045-0.292,0.089-0.435,0.141
		c-0.163,0.059-0.324,0.126-0.485,0.194c-0.139,0.059-0.278,0.117-0.415,0.181c-0.15,0.071-0.298,0.15-0.445,0.23
		c-0.146,0.079-0.291,0.158-0.433,0.244c-0.128,0.078-0.254,0.16-0.38,0.244c-0.157,0.104-0.311,0.212-0.462,0.325
		c-0.052,0.039-0.107,0.071-0.158,0.111l-20.532,16.068l-20.533-16.068c-3.62-2.833-8.706-2.833-12.326,0l-20.528,16.067
		l-20.53-16.067c-0.052-0.041-0.107-0.073-0.16-0.113c-0.149-0.112-0.301-0.218-0.456-0.321c-0.128-0.086-0.256-0.17-0.387-0.249
		c-0.139-0.084-0.281-0.161-0.423-0.238c-0.151-0.082-0.302-0.162-0.456-0.235c-0.132-0.063-0.266-0.119-0.401-0.175
		c-0.165-0.07-0.331-0.139-0.499-0.2c-0.138-0.05-0.279-0.092-0.419-0.136c-0.165-0.051-0.329-0.103-0.495-0.145
		c-0.158-0.04-0.317-0.072-0.477-0.104c-0.151-0.031-0.302-0.063-0.454-0.086c-0.177-0.028-0.357-0.045-0.536-0.063
		c-0.139-0.014-0.277-0.03-0.416-0.037c-0.185-0.011-0.37-0.012-0.557-0.012c-0.14,0-0.279-0.001-0.418,0.004
		c-0.176,0.007-0.352,0.022-0.529,0.039c-0.156,0.014-0.311,0.03-0.465,0.051c-0.157,0.022-0.313,0.05-0.47,0.08
		c-0.177,0.033-0.354,0.07-0.529,0.113c-0.066,0.016-0.132,0.025-0.198,0.042c-0.076,0.02-0.146,0.049-0.221,0.071
		c-0.182,0.053-0.362,0.111-0.541,0.174c-0.137,0.049-0.273,0.099-0.407,0.154c-0.167,0.067-0.332,0.14-0.496,0.217
		c-0.138,0.065-0.275,0.131-0.409,0.202c-0.15,0.079-0.298,0.163-0.444,0.25c-0.139,0.082-0.276,0.166-0.41,0.255
		c-0.133,0.088-0.264,0.181-0.393,0.276c-0.138,0.101-0.274,0.204-0.406,0.312c-0.117,0.095-0.231,0.195-0.344,0.296
		c-0.136,0.122-0.268,0.245-0.397,0.374c-0.101,0.101-0.2,0.205-0.298,0.311c-0.129,0.141-0.254,0.284-0.374,0.432
		c-0.049,0.06-0.103,0.113-0.151,0.174c-0.042,0.053-0.075,0.11-0.116,0.164c-0.109,0.146-0.213,0.295-0.314,0.446
		c-0.088,0.131-0.174,0.263-0.255,0.397c-0.082,0.135-0.157,0.274-0.232,0.413c-0.083,0.154-0.166,0.309-0.24,0.466
		c-0.061,0.128-0.115,0.259-0.171,0.39c-0.071,0.169-0.142,0.337-0.204,0.508c-0.049,0.135-0.09,0.273-0.133,0.41
		c-0.052,0.167-0.104,0.334-0.147,0.504c-0.04,0.155-0.071,0.313-0.103,0.47c-0.031,0.153-0.064,0.306-0.087,0.46
		c-0.027,0.176-0.045,0.354-0.063,0.532c-0.014,0.14-0.03,0.279-0.038,0.419c-0.011,0.184-0.012,0.37-0.012,0.556
		c0,0.14-0.001,0.279,0.004,0.418c0.007,0.176,0.023,0.353,0.039,0.53c0.014,0.155,0.029,0.309,0.051,0.464
		c0.022,0.157,0.05,0.314,0.08,0.471c0.033,0.177,0.07,0.353,0.113,0.528c0.016,0.066,0.025,0.132,0.042,0.198l38.487,143.945
		c1.195,4.471,5.237,7.419,9.654,7.419c0.854,0,1.725-0.11,2.589-0.342c5.335-1.427,8.504-6.908,7.078-12.244l-30.763-115.059
		l3.146,2.462c1.81,1.417,3.986,2.125,6.163,2.125s4.353-0.708,6.164-2.125l20.528-16.067l20.533,16.068
		c3.62,2.833,8.705,2.833,12.326,0l3.149-2.464l-30.764,115.061c-1.427,5.335,1.742,10.817,7.078,12.244
		c0.865,0.231,1.734,0.342,2.589,0.342c4.417,0,8.459-2.949,9.654-7.419l38.487-143.945c0.018-0.065,0.026-0.131,0.042-0.197
		c0.043-0.177,0.08-0.354,0.114-0.532c0.03-0.156,0.058-0.312,0.08-0.468c0.022-0.155,0.037-0.31,0.051-0.466
		c0.017-0.177,0.032-0.353,0.039-0.529C284.489,154.825,284.488,154.686,284.487,154.547z"/>
</g>
<g>
</g>
<g>
</g>
<g>
</g>
<g>
</g>
<g>
</g>
<g>
</g>
<g>
</g>
<g>
</g>
<g>
</g>
<g>
</g>
<g>
</g>
<g>
</g>
<g>
</g>
<g>
</g>
<g>
</g>
</svg>
